<?xml version="1.0" encoding="UTF-8" standalone="no"?>
<!DOCTYPE svg PUBLIC "-//W3C//DTD SVG 1.1//EN"
 "http://www.w3.org/Graphics/SVG/1.1/DTD/svg11.dtd">
<!-- Generated by graphviz version 3.0.0 (20220226.1711)
 -->
<!-- Title: AST Pages: 1 -->
<svg width="494pt" height="620pt"
 viewBox="0.00 0.00 494.00 620.00" xmlns="http://www.w3.org/2000/svg" xmlns:xlink="http://www.w3.org/1999/xlink">
<g id="graph0" class="graph" transform="scale(1 1) rotate(0) translate(4 616)">
<title>AST</title>
<polygon fill="white" stroke="transparent" points="-4,4 -4,-616 490,-616 490,4 -4,4"/>
<!-- 1 -->
<g id="node1" class="node">
<title>1</title>
<ellipse fill="none" stroke="black" cx="243" cy="-594" rx="27" ry="18"/>
<text text-anchor="middle" x="243" y="-590.3" font-family="Times,serif" font-size="14.00">=</text>
</g>
<!-- 2 -->
<g id="node2" class="node">
<title>2</title>
<ellipse fill="none" stroke="black" cx="189" cy="-522" rx="27" ry="18"/>
<text text-anchor="middle" x="189" y="-518.3" font-family="Times,serif" font-size="14.00">a</text>
</g>
<!-- 1&#45;&gt;2 -->
<g id="edge1" class="edge">
<title>1&#45;&gt;2</title>
<path fill="none" stroke="black" d="M226.83,-579.17C218.75,-570.27 209.3,-558.44 201.74,-547.93"/>
<polygon fill="black" stroke="black" points="204.48,-545.74 195.91,-539.51 198.72,-549.72 204.48,-545.74"/>
</g>
<!-- 3 -->
<g id="node3" class="node">
<title>3</title>
<ellipse fill="none" stroke="black" cx="261" cy="-522" rx="27" ry="18"/>
<text text-anchor="middle" x="261" y="-518.3" font-family="Times,serif" font-size="14.00">&#45;</text>
</g>
<!-- 1&#45;&gt;3 -->
<g id="edge31" class="edge">
<title>1&#45;&gt;3</title>
<path fill="none" stroke="black" d="M241.53,-575.7C242.78,-567.58 245.11,-557.74 247.84,-548.76"/>
<polygon fill="black" stroke="black" points="251.2,-549.74 251.06,-539.14 244.56,-547.52 251.2,-549.74"/>
</g>
<!-- 2&#45;&gt;1 -->
<g id="edge2" class="edge">
<title>2&#45;&gt;1</title>
<path fill="none" stroke="black" d="M205.01,-536.65C213.09,-545.54 222.58,-557.4 230.18,-567.95"/>
<polygon fill="black" stroke="black" points="227.47,-570.19 236.04,-576.41 233.22,-566.2 227.47,-570.19"/>
</g>
<!-- 3&#45;&gt;1 -->
<g id="edge32" class="edge">
<title>3&#45;&gt;1</title>
<path fill="none" stroke="black" d="M262.47,-540.29C261.21,-548.48 258.86,-558.42 256.1,-567.45"/>
<polygon fill="black" stroke="black" points="252.72,-566.52 252.85,-577.12 259.35,-568.75 252.72,-566.52"/>
</g>
<!-- 4 -->
<g id="node4" class="node">
<title>4</title>
<ellipse fill="none" stroke="black" cx="198" cy="-450" rx="27" ry="18"/>
<text text-anchor="middle" x="198" y="-446.3" font-family="Times,serif" font-size="14.00">+</text>
</g>
<!-- 3&#45;&gt;4 -->
<g id="edge27" class="edge">
<title>3&#45;&gt;4</title>
<path fill="none" stroke="black" d="M243.74,-507.83C234.13,-498.62 222.46,-486.04 213.21,-475.06"/>
<polygon fill="black" stroke="black" points="215.71,-472.59 206.67,-467.06 210.28,-477.02 215.71,-472.59"/>
</g>
<!-- 17 -->
<g id="node17" class="node">
<title>17</title>
<ellipse fill="none" stroke="black" cx="270" cy="-450" rx="27" ry="18"/>
<text text-anchor="middle" x="270" y="-446.3" font-family="Times,serif" font-size="14.00">6</text>
</g>
<!-- 3&#45;&gt;17 -->
<g id="edge29" class="edge">
<title>3&#45;&gt;17</title>
<path fill="none" stroke="black" d="M257.3,-504.05C257.48,-496.03 258.51,-486.26 260.06,-477.3"/>
<polygon fill="black" stroke="black" points="263.53,-477.8 262.09,-467.31 256.67,-476.41 263.53,-477.8"/>
</g>
<!-- 4&#45;&gt;3 -->
<g id="edge28" class="edge">
<title>4&#45;&gt;3</title>
<path fill="none" stroke="black" d="M215.43,-464.33C224.98,-473.5 236.51,-485.93 245.69,-496.82"/>
<polygon fill="black" stroke="black" points="243.15,-499.24 252.19,-504.76 248.57,-494.81 243.15,-499.24"/>
</g>
<!-- 5 -->
<g id="node5" class="node">
<title>5</title>
<ellipse fill="none" stroke="black" cx="162" cy="-378" rx="27" ry="18"/>
<text text-anchor="middle" x="162" y="-374.3" font-family="Times,serif" font-size="14.00">+</text>
</g>
<!-- 4&#45;&gt;5 -->
<g id="edge23" class="edge">
<title>4&#45;&gt;5</title>
<path fill="none" stroke="black" d="M184.73,-434.15C179.38,-425.79 173.57,-415.09 168.99,-405.34"/>
<polygon fill="black" stroke="black" points="172.12,-403.77 164.88,-396.04 165.71,-406.6 172.12,-403.77"/>
</g>
<!-- 16 -->
<g id="node16" class="node">
<title>16</title>
<ellipse fill="none" stroke="black" cx="234" cy="-378" rx="27" ry="18"/>
<text text-anchor="middle" x="234" y="-374.3" font-family="Times,serif" font-size="14.00">5</text>
</g>
<!-- 4&#45;&gt;16 -->
<g id="edge25" class="edge">
<title>4&#45;&gt;16</title>
<path fill="none" stroke="black" d="M200.84,-432.05C204.44,-423.22 209.89,-412.28 215.42,-402.63"/>
<polygon fill="black" stroke="black" points="218.53,-404.26 220.7,-393.89 212.54,-400.64 218.53,-404.26"/>
</g>
<!-- 5&#45;&gt;4 -->
<g id="edge24" class="edge">
<title>5&#45;&gt;4</title>
<path fill="none" stroke="black" d="M175.3,-393.89C180.66,-402.28 186.48,-413 191.06,-422.75"/>
<polygon fill="black" stroke="black" points="187.93,-424.32 195.16,-432.05 194.33,-421.49 187.93,-424.32"/>
</g>
<!-- 6 -->
<g id="node6" class="node">
<title>6</title>
<ellipse fill="none" stroke="black" cx="99" cy="-306" rx="27" ry="18"/>
<text text-anchor="middle" x="99" y="-302.3" font-family="Times,serif" font-size="14.00">1</text>
</g>
<!-- 5&#45;&gt;6 -->
<g id="edge3" class="edge">
<title>5&#45;&gt;6</title>
<path fill="none" stroke="black" d="M144.74,-363.83C135.13,-354.62 123.46,-342.04 114.21,-331.06"/>
<polygon fill="black" stroke="black" points="116.71,-328.59 107.67,-323.06 111.28,-333.02 116.71,-328.59"/>
</g>
<!-- 7 -->
<g id="node7" class="node">
<title>7</title>
<ellipse fill="none" stroke="black" cx="171" cy="-306" rx="27" ry="18"/>
<text text-anchor="middle" x="171" y="-302.3" font-family="Times,serif" font-size="14.00">/</text>
</g>
<!-- 5&#45;&gt;7 -->
<g id="edge21" class="edge">
<title>5&#45;&gt;7</title>
<path fill="none" stroke="black" d="M158.3,-360.05C158.48,-352.03 159.51,-342.26 161.06,-333.3"/>
<polygon fill="black" stroke="black" points="164.53,-333.8 163.09,-323.31 157.67,-332.41 164.53,-333.8"/>
</g>
<!-- 6&#45;&gt;5 -->
<g id="edge4" class="edge">
<title>6&#45;&gt;5</title>
<path fill="none" stroke="black" d="M116.43,-320.33C125.98,-329.5 137.51,-341.93 146.69,-352.82"/>
<polygon fill="black" stroke="black" points="144.15,-355.24 153.19,-360.76 149.57,-350.81 144.15,-355.24"/>
</g>
<!-- 7&#45;&gt;5 -->
<g id="edge22" class="edge">
<title>7&#45;&gt;5</title>
<path fill="none" stroke="black" d="M174.7,-324.12C174.5,-332.15 173.47,-341.89 171.92,-350.82"/>
<polygon fill="black" stroke="black" points="168.46,-350.27 169.89,-360.76 175.32,-351.67 168.46,-350.27"/>
</g>
<!-- 8 -->
<g id="node8" class="node">
<title>8</title>
<ellipse fill="none" stroke="black" cx="99" cy="-234" rx="27" ry="18"/>
<text text-anchor="middle" x="99" y="-230.3" font-family="Times,serif" font-size="14.00">*</text>
</g>
<!-- 7&#45;&gt;8 -->
<g id="edge17" class="edge">
<title>7&#45;&gt;8</title>
<path fill="none" stroke="black" d="M152.81,-292.49C141.66,-283.03 127.66,-269.77 116.63,-258.37"/>
<polygon fill="black" stroke="black" points="118.95,-255.72 109.54,-250.85 113.85,-260.52 118.95,-255.72"/>
</g>
<!-- 15 -->
<g id="node15" class="node">
<title>15</title>
<ellipse fill="none" stroke="black" cx="171" cy="-234" rx="27" ry="18"/>
<text text-anchor="middle" x="171" y="-230.3" font-family="Times,serif" font-size="14.00">4</text>
</g>
<!-- 7&#45;&gt;15 -->
<g id="edge19" class="edge">
<title>7&#45;&gt;15</title>
<path fill="none" stroke="black" d="M165.16,-288.41C164.3,-280.51 164.05,-270.85 164.41,-261.94"/>
<polygon fill="black" stroke="black" points="167.9,-262.18 165.12,-251.96 160.92,-261.68 167.9,-262.18"/>
</g>
<!-- 8&#45;&gt;7 -->
<g id="edge18" class="edge">
<title>8&#45;&gt;7</title>
<path fill="none" stroke="black" d="M117.24,-247.56C128.38,-257.01 142.34,-270.23 153.34,-281.6"/>
<polygon fill="black" stroke="black" points="151.02,-284.24 160.42,-289.12 156.11,-279.44 151.02,-284.24"/>
</g>
<!-- 9 -->
<g id="node9" class="node">
<title>9</title>
<ellipse fill="none" stroke="black" cx="63" cy="-162" rx="27" ry="18"/>
<text text-anchor="middle" x="63" y="-158.3" font-family="Times,serif" font-size="14.00">*</text>
</g>
<!-- 8&#45;&gt;9 -->
<g id="edge13" class="edge">
<title>8&#45;&gt;9</title>
<path fill="none" stroke="black" d="M85.73,-218.15C80.38,-209.79 74.57,-199.09 69.99,-189.34"/>
<polygon fill="black" stroke="black" points="73.12,-187.77 65.88,-180.04 66.71,-190.6 73.12,-187.77"/>
</g>
<!-- 14 -->
<g id="node14" class="node">
<title>14</title>
<ellipse fill="none" stroke="black" cx="135" cy="-162" rx="27" ry="18"/>
<text text-anchor="middle" x="135" y="-158.3" font-family="Times,serif" font-size="14.00">8</text>
</g>
<!-- 8&#45;&gt;14 -->
<g id="edge15" class="edge">
<title>8&#45;&gt;14</title>
<path fill="none" stroke="black" d="M101.84,-216.05C105.44,-207.22 110.89,-196.28 116.42,-186.63"/>
<polygon fill="black" stroke="black" points="119.53,-188.26 121.7,-177.89 113.54,-184.64 119.53,-188.26"/>
</g>
<!-- 9&#45;&gt;8 -->
<g id="edge14" class="edge">
<title>9&#45;&gt;8</title>
<path fill="none" stroke="black" d="M76.3,-177.89C81.66,-186.28 87.48,-197 92.06,-206.75"/>
<polygon fill="black" stroke="black" points="88.93,-208.32 96.16,-216.05 95.33,-205.49 88.93,-208.32"/>
</g>
<!-- 10 -->
<g id="node10" class="node">
<title>10</title>
<ellipse fill="none" stroke="black" cx="27" cy="-90" rx="27" ry="18"/>
<text text-anchor="middle" x="27" y="-86.3" font-family="Times,serif" font-size="14.00">2</text>
</g>
<!-- 9&#45;&gt;10 -->
<g id="edge5" class="edge">
<title>9&#45;&gt;10</title>
<path fill="none" stroke="black" d="M49.73,-146.15C44.38,-137.79 38.57,-127.09 33.99,-117.34"/>
<polygon fill="black" stroke="black" points="37.12,-115.77 29.88,-108.04 30.71,-118.6 37.12,-115.77"/>
</g>
<!-- 11 -->
<g id="node11" class="node">
<title>11</title>
<ellipse fill="none" stroke="black" cx="99" cy="-90" rx="27" ry="18"/>
<text text-anchor="middle" x="99" y="-86.3" font-family="Times,serif" font-size="14.00">&#45;</text>
</g>
<!-- 9&#45;&gt;11 -->
<g id="edge11" class="edge">
<title>9&#45;&gt;11</title>
<path fill="none" stroke="black" d="M65.84,-144.05C69.44,-135.22 74.89,-124.28 80.42,-114.63"/>
<polygon fill="black" stroke="black" points="83.53,-116.26 85.7,-105.89 77.54,-112.64 83.53,-116.26"/>
</g>
<!-- 10&#45;&gt;9 -->
<g id="edge6" class="edge">
<title>10&#45;&gt;9</title>
<path fill="none" stroke="black" d="M40.3,-105.89C45.66,-114.28 51.48,-125 56.06,-134.75"/>
<polygon fill="black" stroke="black" points="52.93,-136.32 60.16,-144.05 59.33,-133.49 52.93,-136.32"/>
</g>
<!-- 11&#45;&gt;9 -->
<g id="edge12" class="edge">
<title>11&#45;&gt;9</title>
<path fill="none" stroke="black" d="M96.12,-108.04C92.51,-116.87 87.07,-127.8 81.54,-137.43"/>
<polygon fill="black" stroke="black" points="78.45,-135.79 76.27,-146.15 84.44,-139.4 78.45,-135.79"/>
</g>
<!-- 12 -->
<g id="node12" class="node">
<title>12</title>
<ellipse fill="none" stroke="black" cx="63" cy="-18" rx="27" ry="18"/>
<text text-anchor="middle" x="63" y="-14.3" font-family="Times,serif" font-size="14.00">6</text>
</g>
<!-- 11&#45;&gt;12 -->
<g id="edge7" class="edge">
<title>11&#45;&gt;12</title>
<path fill="none" stroke="black" d="M85.73,-74.15C80.38,-65.79 74.57,-55.09 69.99,-45.34"/>
<polygon fill="black" stroke="black" points="73.12,-43.77 65.88,-36.04 66.71,-46.6 73.12,-43.77"/>
</g>
<!-- 13 -->
<g id="node13" class="node">
<title>13</title>
<ellipse fill="none" stroke="black" cx="135" cy="-18" rx="27" ry="18"/>
<text text-anchor="middle" x="135" y="-14.3" font-family="Times,serif" font-size="14.00">2</text>
</g>
<!-- 11&#45;&gt;13 -->
<g id="edge9" class="edge">
<title>11&#45;&gt;13</title>
<path fill="none" stroke="black" d="M101.84,-72.05C105.44,-63.22 110.89,-52.28 116.42,-42.63"/>
<polygon fill="black" stroke="black" points="119.53,-44.26 121.7,-33.89 113.54,-40.64 119.53,-44.26"/>
</g>
<!-- 12&#45;&gt;11 -->
<g id="edge8" class="edge">
<title>12&#45;&gt;11</title>
<path fill="none" stroke="black" d="M76.3,-33.89C81.66,-42.28 87.48,-53 92.06,-62.75"/>
<polygon fill="black" stroke="black" points="88.93,-64.32 96.16,-72.05 95.33,-61.49 88.93,-64.32"/>
</g>
<!-- 13&#45;&gt;11 -->
<g id="edge10" class="edge">
<title>13&#45;&gt;11</title>
<path fill="none" stroke="black" d="M132.12,-36.04C128.51,-44.87 123.07,-55.8 117.54,-65.43"/>
<polygon fill="black" stroke="black" points="114.45,-63.79 112.27,-74.15 120.44,-67.4 114.45,-63.79"/>
</g>
<!-- 14&#45;&gt;8 -->
<g id="edge16" class="edge">
<title>14&#45;&gt;8</title>
<path fill="none" stroke="black" d="M132.12,-180.04C128.51,-188.87 123.07,-199.8 117.54,-209.43"/>
<polygon fill="black" stroke="black" points="114.45,-207.79 112.27,-218.15 120.44,-211.4 114.45,-207.79"/>
</g>
<!-- 15&#45;&gt;7 -->
<g id="edge20" class="edge">
<title>15&#45;&gt;7</title>
<path fill="none" stroke="black" d="M176.88,-251.96C177.71,-259.83 177.95,-269.37 177.58,-278.19"/>
<polygon fill="black" stroke="black" points="174.07,-278.18 176.84,-288.41 181.06,-278.69 174.07,-278.18"/>
</g>
<!-- 16&#45;&gt;4 -->
<g id="edge26" class="edge">
<title>16&#45;&gt;4</title>
<path fill="none" stroke="black" d="M231.12,-396.04C227.51,-404.87 222.07,-415.8 216.54,-425.43"/>
<polygon fill="black" stroke="black" points="213.45,-423.79 211.27,-434.15 219.44,-427.4 213.45,-423.79"/>
</g>
<!-- 17&#45;&gt;3 -->
<g id="edge30" class="edge">
<title>17&#45;&gt;3</title>
<path fill="none" stroke="black" d="M273.7,-468.12C273.5,-476.15 272.47,-485.89 270.92,-494.82"/>
<polygon fill="black" stroke="black" points="267.46,-494.27 268.89,-504.76 274.32,-495.67 267.46,-494.27"/>
</g>
<!-- 18 -->
<g id="node18" class="node">
<title>18</title>
<ellipse fill="none" stroke="black" cx="351" cy="-594" rx="27" ry="18"/>
<text text-anchor="middle" x="351" y="-590.3" font-family="Times,serif" font-size="14.00">tanh</text>
</g>
<!-- 19 -->
<g id="node19" class="node">
<title>19</title>
<ellipse fill="none" stroke="black" cx="351" cy="-522" rx="27" ry="18"/>
<text text-anchor="middle" x="351" y="-518.3" font-family="Times,serif" font-size="14.00">+</text>
</g>
<!-- 18&#45;&gt;19 -->
<g id="edge61" class="edge">
<title>18&#45;&gt;19</title>
<path fill="none" stroke="black" d="M345.16,-576.41C344.3,-568.51 344.05,-558.85 344.41,-549.94"/>
<polygon fill="black" stroke="black" points="347.9,-550.18 345.12,-539.96 340.92,-549.68 347.9,-550.18"/>
</g>
<!-- 19&#45;&gt;18 -->
<g id="edge62" class="edge">
<title>19&#45;&gt;18</title>
<path fill="none" stroke="black" d="M356.88,-539.96C357.71,-547.83 357.95,-557.37 357.58,-566.19"/>
<polygon fill="black" stroke="black" points="354.07,-566.18 356.84,-576.41 361.06,-566.69 354.07,-566.18"/>
</g>
<!-- 20 -->
<g id="node20" class="node">
<title>20</title>
<ellipse fill="none" stroke="black" cx="342" cy="-450" rx="27" ry="18"/>
<text text-anchor="middle" x="342" y="-446.3" font-family="Times,serif" font-size="14.00">&#45;</text>
</g>
<!-- 19&#45;&gt;20 -->
<g id="edge57" class="edge">
<title>19&#45;&gt;20</title>
<path fill="none" stroke="black" d="M343.11,-504.76C341.21,-496.87 339.7,-487.16 338.9,-478.18"/>
<polygon fill="black" stroke="black" points="342.39,-477.9 338.3,-468.12 335.4,-478.31 342.39,-477.9"/>
</g>
<!-- 33 -->
<g id="node33" class="node">
<title>33</title>
<ellipse fill="none" stroke="black" cx="414" cy="-450" rx="27" ry="18"/>
<text text-anchor="middle" x="414" y="-446.3" font-family="Times,serif" font-size="14.00">a</text>
</g>
<!-- 19&#45;&gt;33 -->
<g id="edge59" class="edge">
<title>19&#45;&gt;33</title>
<path fill="none" stroke="black" d="M359.81,-504.76C367.59,-494.88 378.9,-482.17 389.26,-471.59"/>
<polygon fill="black" stroke="black" points="391.94,-473.86 396.57,-464.33 387,-468.89 391.94,-473.86"/>
</g>
<!-- 20&#45;&gt;19 -->
<g id="edge58" class="edge">
<title>20&#45;&gt;19</title>
<path fill="none" stroke="black" d="M349.91,-467.31C351.81,-475.24 353.32,-484.98 354.12,-493.98"/>
<polygon fill="black" stroke="black" points="350.63,-494.27 354.7,-504.05 357.62,-493.87 350.63,-494.27"/>
</g>
<!-- 21 -->
<g id="node21" class="node">
<title>21</title>
<ellipse fill="none" stroke="black" cx="324" cy="-378" rx="27" ry="18"/>
<text text-anchor="middle" x="324" y="-374.3" font-family="Times,serif" font-size="14.00">+</text>
</g>
<!-- 20&#45;&gt;21 -->
<g id="edge53" class="edge">
<title>20&#45;&gt;21</title>
<path fill="none" stroke="black" d="M332.15,-433.12C329.19,-425.14 326.37,-415.26 324.38,-406.14"/>
<polygon fill="black" stroke="black" points="327.82,-405.47 322.53,-396.29 320.94,-406.77 327.82,-405.47"/>
</g>
<!-- 32 -->
<g id="node32" class="node">
<title>32</title>
<ellipse fill="none" stroke="black" cx="396" cy="-378" rx="27" ry="18"/>
<text text-anchor="middle" x="396" y="-374.3" font-family="Times,serif" font-size="14.00">5</text>
</g>
<!-- 20&#45;&gt;32 -->
<g id="edge55" class="edge">
<title>20&#45;&gt;32</title>
<path fill="none" stroke="black" d="M348.96,-432.41C355.3,-422.84 364.51,-410.7 373.2,-400.42"/>
<polygon fill="black" stroke="black" points="376.05,-402.48 379.99,-392.65 370.77,-397.88 376.05,-402.48"/>
</g>
<!-- 21&#45;&gt;20 -->
<g id="edge54" class="edge">
<title>21&#45;&gt;20</title>
<path fill="none" stroke="black" d="M333.94,-395.14C336.85,-403.01 339.61,-412.68 341.57,-421.64"/>
<polygon fill="black" stroke="black" points="338.17,-422.52 343.47,-431.7 345.05,-421.22 338.17,-422.52"/>
</g>
<!-- 22 -->
<g id="node22" class="node">
<title>22</title>
<ellipse fill="none" stroke="black" cx="315" cy="-306" rx="27" ry="18"/>
<text text-anchor="middle" x="315" y="-302.3" font-family="Times,serif" font-size="14.00">+</text>
</g>
<!-- 21&#45;&gt;22 -->
<g id="edge41" class="edge">
<title>21&#45;&gt;22</title>
<path fill="none" stroke="black" d="M316.11,-360.76C314.21,-352.87 312.7,-343.16 311.9,-334.18"/>
<polygon fill="black" stroke="black" points="315.39,-333.9 311.3,-324.12 308.4,-334.31 315.39,-333.9"/>
</g>
<!-- 27 -->
<g id="node27" class="node">
<title>27</title>
<ellipse fill="none" stroke="black" cx="387" cy="-306" rx="27" ry="18"/>
<text text-anchor="middle" x="387" y="-302.3" font-family="Times,serif" font-size="14.00">/</text>
</g>
<!-- 21&#45;&gt;27 -->
<g id="edge51" class="edge">
<title>21&#45;&gt;27</title>
<path fill="none" stroke="black" d="M332.81,-360.76C340.59,-350.88 351.9,-338.17 362.26,-327.59"/>
<polygon fill="black" stroke="black" points="364.94,-329.86 369.57,-320.33 360,-324.89 364.94,-329.86"/>
</g>
<!-- 22&#45;&gt;21 -->
<g id="edge42" class="edge">
<title>22&#45;&gt;21</title>
<path fill="none" stroke="black" d="M322.91,-323.31C324.81,-331.24 326.32,-340.98 327.12,-349.98"/>
<polygon fill="black" stroke="black" points="323.63,-350.27 327.7,-360.05 330.62,-349.87 323.63,-350.27"/>
</g>
<!-- 23 -->
<g id="node23" class="node">
<title>23</title>
<ellipse fill="none" stroke="black" cx="243" cy="-234" rx="27" ry="18"/>
<text text-anchor="middle" x="243" y="-230.3" font-family="Times,serif" font-size="14.00">+</text>
</g>
<!-- 22&#45;&gt;23 -->
<g id="edge37" class="edge">
<title>22&#45;&gt;23</title>
<path fill="none" stroke="black" d="M296.81,-292.49C285.66,-283.03 271.66,-269.77 260.63,-258.37"/>
<polygon fill="black" stroke="black" points="262.95,-255.72 253.54,-250.85 257.85,-260.52 262.95,-255.72"/>
</g>
<!-- 26 -->
<g id="node26" class="node">
<title>26</title>
<ellipse fill="none" stroke="black" cx="315" cy="-234" rx="27" ry="18"/>
<text text-anchor="middle" x="315" y="-230.3" font-family="Times,serif" font-size="14.00">3</text>
</g>
<!-- 22&#45;&gt;26 -->
<g id="edge39" class="edge">
<title>22&#45;&gt;26</title>
<path fill="none" stroke="black" d="M309.16,-288.41C308.3,-280.51 308.05,-270.85 308.41,-261.94"/>
<polygon fill="black" stroke="black" points="311.9,-262.18 309.12,-251.96 304.92,-261.68 311.9,-262.18"/>
</g>
<!-- 23&#45;&gt;22 -->
<g id="edge38" class="edge">
<title>23&#45;&gt;22</title>
<path fill="none" stroke="black" d="M261.24,-247.56C272.38,-257.01 286.34,-270.23 297.34,-281.6"/>
<polygon fill="black" stroke="black" points="295.02,-284.24 304.42,-289.12 300.11,-279.44 295.02,-284.24"/>
</g>
<!-- 24 -->
<g id="node24" class="node">
<title>24</title>
<ellipse fill="none" stroke="black" cx="225" cy="-162" rx="27" ry="18"/>
<text text-anchor="middle" x="225" y="-158.3" font-family="Times,serif" font-size="14.00">1</text>
</g>
<!-- 23&#45;&gt;24 -->
<g id="edge33" class="edge">
<title>23&#45;&gt;24</title>
<path fill="none" stroke="black" d="M233.15,-217.12C230.19,-209.14 227.37,-199.26 225.38,-190.14"/>
<polygon fill="black" stroke="black" points="228.82,-189.47 223.53,-180.29 221.94,-190.77 228.82,-189.47"/>
</g>
<!-- 25 -->
<g id="node25" class="node">
<title>25</title>
<ellipse fill="none" stroke="black" cx="297" cy="-162" rx="27" ry="18"/>
<text text-anchor="middle" x="297" y="-158.3" font-family="Times,serif" font-size="14.00">2</text>
</g>
<!-- 23&#45;&gt;25 -->
<g id="edge35" class="edge">
<title>23&#45;&gt;25</title>
<path fill="none" stroke="black" d="M249.96,-216.41C256.3,-206.84 265.51,-194.7 274.2,-184.42"/>
<polygon fill="black" stroke="black" points="277.05,-186.48 280.99,-176.65 271.77,-181.88 277.05,-186.48"/>
</g>
<!-- 24&#45;&gt;23 -->
<g id="edge34" class="edge">
<title>24&#45;&gt;23</title>
<path fill="none" stroke="black" d="M234.94,-179.14C237.85,-187.01 240.61,-196.68 242.57,-205.64"/>
<polygon fill="black" stroke="black" points="239.17,-206.52 244.47,-215.7 246.05,-205.22 239.17,-206.52"/>
</g>
<!-- 25&#45;&gt;23 -->
<g id="edge36" class="edge">
<title>25&#45;&gt;23</title>
<path fill="none" stroke="black" d="M290.09,-179.51C283.79,-189.04 274.62,-201.13 265.95,-211.4"/>
<polygon fill="black" stroke="black" points="263.11,-209.33 259.17,-219.17 268.38,-213.94 263.11,-209.33"/>
</g>
<!-- 26&#45;&gt;22 -->
<g id="edge40" class="edge">
<title>26&#45;&gt;22</title>
<path fill="none" stroke="black" d="M320.88,-251.96C321.71,-259.83 321.95,-269.37 321.58,-278.19"/>
<polygon fill="black" stroke="black" points="318.07,-278.18 320.84,-288.41 325.06,-278.69 318.07,-278.18"/>
</g>
<!-- 27&#45;&gt;21 -->
<g id="edge52" class="edge">
<title>27&#45;&gt;21</title>
<path fill="none" stroke="black" d="M378.33,-323.06C370.51,-333 359.08,-345.86 348.63,-356.52"/>
<polygon fill="black" stroke="black" points="345.9,-354.31 341.26,-363.83 350.83,-359.28 345.9,-354.31"/>
</g>
<!-- 28 -->
<g id="node28" class="node">
<title>28</title>
<ellipse fill="none" stroke="black" cx="387" cy="-234" rx="27" ry="18"/>
<text text-anchor="middle" x="387" y="-230.3" font-family="Times,serif" font-size="14.00">*</text>
</g>
<!-- 27&#45;&gt;28 -->
<g id="edge47" class="edge">
<title>27&#45;&gt;28</title>
<path fill="none" stroke="black" d="M381.16,-288.41C380.3,-280.51 380.05,-270.85 380.41,-261.94"/>
<polygon fill="black" stroke="black" points="383.9,-262.18 381.12,-251.96 376.92,-261.68 383.9,-262.18"/>
</g>
<!-- 31 -->
<g id="node31" class="node">
<title>31</title>
<ellipse fill="none" stroke="black" cx="459" cy="-234" rx="27" ry="18"/>
<text text-anchor="middle" x="459" y="-230.3" font-family="Times,serif" font-size="14.00">2</text>
</g>
<!-- 27&#45;&gt;31 -->
<g id="edge49" class="edge">
<title>27&#45;&gt;31</title>
<path fill="none" stroke="black" d="M397.58,-289.12C407.01,-278.79 420.8,-265.27 433.02,-254.32"/>
<polygon fill="black" stroke="black" points="435.53,-256.77 440.76,-247.56 430.92,-251.5 435.53,-256.77"/>
</g>
<!-- 28&#45;&gt;27 -->
<g id="edge48" class="edge">
<title>28&#45;&gt;27</title>
<path fill="none" stroke="black" d="M392.88,-251.96C393.71,-259.83 393.95,-269.37 393.58,-278.19"/>
<polygon fill="black" stroke="black" points="390.07,-278.18 392.84,-288.41 397.06,-278.69 390.07,-278.18"/>
</g>
<!-- 29 -->
<g id="node29" class="node">
<title>29</title>
<ellipse fill="none" stroke="black" cx="378" cy="-162" rx="27" ry="18"/>
<text text-anchor="middle" x="378" y="-158.3" font-family="Times,serif" font-size="14.00">4</text>
</g>
<!-- 28&#45;&gt;29 -->
<g id="edge43" class="edge">
<title>28&#45;&gt;29</title>
<path fill="none" stroke="black" d="M379.11,-216.76C377.21,-208.87 375.7,-199.16 374.9,-190.18"/>
<polygon fill="black" stroke="black" points="378.39,-189.9 374.3,-180.12 371.4,-190.31 378.39,-189.9"/>
</g>
<!-- 30 -->
<g id="node30" class="node">
<title>30</title>
<ellipse fill="none" stroke="black" cx="450" cy="-162" rx="27" ry="18"/>
<text text-anchor="middle" x="450" y="-158.3" font-family="Times,serif" font-size="14.00">8</text>
</g>
<!-- 28&#45;&gt;30 -->
<g id="edge45" class="edge">
<title>28&#45;&gt;30</title>
<path fill="none" stroke="black" d="M395.81,-216.76C403.59,-206.88 414.9,-194.17 425.26,-183.59"/>
<polygon fill="black" stroke="black" points="427.94,-185.86 432.57,-176.33 423,-180.89 427.94,-185.86"/>
</g>
<!-- 29&#45;&gt;28 -->
<g id="edge44" class="edge">
<title>29&#45;&gt;28</title>
<path fill="none" stroke="black" d="M385.91,-179.31C387.81,-187.24 389.32,-196.98 390.12,-205.98"/>
<polygon fill="black" stroke="black" points="386.63,-206.27 390.7,-216.05 393.62,-205.87 386.63,-206.27"/>
</g>
<!-- 30&#45;&gt;28 -->
<g id="edge46" class="edge">
<title>30&#45;&gt;28</title>
<path fill="none" stroke="black" d="M441.33,-179.06C433.51,-189 422.08,-201.86 411.63,-212.52"/>
<polygon fill="black" stroke="black" points="408.9,-210.31 404.26,-219.83 413.83,-215.28 408.9,-210.31"/>
</g>
<!-- 31&#45;&gt;27 -->
<g id="edge50" class="edge">
<title>31&#45;&gt;27</title>
<path fill="none" stroke="black" d="M448.46,-250.85C439.02,-261.19 425.18,-274.75 412.94,-285.71"/>
<polygon fill="black" stroke="black" points="410.42,-283.27 405.19,-292.49 415.02,-288.54 410.42,-283.27"/>
</g>
<!-- 32&#45;&gt;20 -->
<g id="edge56" class="edge">
<title>32&#45;&gt;20</title>
<path fill="none" stroke="black" d="M389.09,-395.51C382.79,-405.04 373.62,-417.13 364.95,-427.4"/>
<polygon fill="black" stroke="black" points="362.11,-425.33 358.17,-435.17 367.38,-429.94 362.11,-425.33"/>
</g>
<!-- 33&#45;&gt;19 -->
<g id="edge60" class="edge">
<title>33&#45;&gt;19</title>
<path fill="none" stroke="black" d="M405.33,-467.06C397.51,-477 386.08,-489.86 375.63,-500.52"/>
<polygon fill="black" stroke="black" points="372.9,-498.31 368.26,-507.83 377.83,-503.28 372.9,-498.31"/>
</g>
<!-- 34 -->
<g id="node34" class="node">
<title>34</title>
<ellipse fill="none" stroke="black" cx="423" cy="-594" rx="27" ry="18"/>
<text text-anchor="middle" x="423" y="-590.3" font-family="Times,serif" font-size="14.00">a</text>
</g>
</g>
</svg>
