<?xml version="1.0" encoding="UTF-8" standalone="no"?>
<!DOCTYPE svg PUBLIC "-//W3C//DTD SVG 1.1//EN"
 "http://www.w3.org/Graphics/SVG/1.1/DTD/svg11.dtd">
<!-- Generated by graphviz version 3.0.0 (20220226.1711)
 -->
<!-- Title: first2 Pages: 1 -->
<svg width="314pt" height="404pt"
 viewBox="0.00 0.00 314.00 404.00" xmlns="http://www.w3.org/2000/svg" xmlns:xlink="http://www.w3.org/1999/xlink">
<g id="graph0" class="graph" transform="scale(1 1) rotate(0) translate(4 400)">
<title>first2</title>
<polygon fill="white" stroke="transparent" points="-4,4 -4,-400 310,-400 310,4 -4,4"/>
<!-- 1 -->
<g id="node1" class="node">
<title>1</title>
<ellipse fill="none" stroke="black" cx="63" cy="-378" rx="27" ry="18"/>
<text text-anchor="middle" x="63" y="-374.3" font-family="Times,serif" font-size="14.00">+</text>
</g>
<!-- 2 -->
<g id="node2" class="node">
<title>2</title>
<ellipse fill="none" stroke="black" cx="27" cy="-306" rx="27" ry="18"/>
<text text-anchor="middle" x="27" y="-302.3" font-family="Times,serif" font-size="14.00">1</text>
</g>
<!-- 1&#45;&gt;2 -->
<g id="edge1" class="edge">
<title>1&#45;&gt;2</title>
<path fill="none" stroke="black" d="M54.65,-360.76C50.29,-352.28 44.85,-341.71 39.96,-332.2"/>
<polygon fill="black" stroke="black" points="42.99,-330.44 35.3,-323.15 36.77,-333.64 42.99,-330.44"/>
</g>
<!-- 3 -->
<g id="node3" class="node">
<title>3</title>
<ellipse fill="none" stroke="black" cx="99" cy="-306" rx="27" ry="18"/>
<text text-anchor="middle" x="99" y="-302.3" font-family="Times,serif" font-size="14.00">+</text>
</g>
<!-- 1&#45;&gt;3 -->
<g id="edge12" class="edge">
<title>1&#45;&gt;3</title>
<path fill="none" stroke="black" d="M71.35,-360.76C75.71,-352.28 81.15,-341.71 86.04,-332.2"/>
<polygon fill="black" stroke="black" points="89.23,-333.64 90.7,-323.15 83.01,-330.44 89.23,-333.64"/>
</g>
<!-- 4 -->
<g id="node4" class="node">
<title>4</title>
<ellipse fill="none" stroke="black" cx="63" cy="-234" rx="27" ry="18"/>
<text text-anchor="middle" x="63" y="-230.3" font-family="Times,serif" font-size="14.00">2</text>
</g>
<!-- 3&#45;&gt;4 -->
<g id="edge2" class="edge">
<title>3&#45;&gt;4</title>
<path fill="none" stroke="black" d="M90.65,-288.76C86.29,-280.28 80.85,-269.71 75.96,-260.2"/>
<polygon fill="black" stroke="black" points="78.99,-258.44 71.3,-251.15 72.77,-261.64 78.99,-258.44"/>
</g>
<!-- 5 -->
<g id="node5" class="node">
<title>5</title>
<ellipse fill="none" stroke="black" cx="135" cy="-234" rx="27" ry="18"/>
<text text-anchor="middle" x="135" y="-230.3" font-family="Times,serif" font-size="14.00">&#45;</text>
</g>
<!-- 3&#45;&gt;5 -->
<g id="edge11" class="edge">
<title>3&#45;&gt;5</title>
<path fill="none" stroke="black" d="M107.35,-288.76C111.71,-280.28 117.15,-269.71 122.04,-260.2"/>
<polygon fill="black" stroke="black" points="125.23,-261.64 126.7,-251.15 119.01,-258.44 125.23,-261.64"/>
</g>
<!-- 6 -->
<g id="node6" class="node">
<title>6</title>
<ellipse fill="none" stroke="black" cx="99" cy="-162" rx="27" ry="18"/>
<text text-anchor="middle" x="99" y="-158.3" font-family="Times,serif" font-size="14.00">3</text>
</g>
<!-- 5&#45;&gt;6 -->
<g id="edge3" class="edge">
<title>5&#45;&gt;6</title>
<path fill="none" stroke="black" d="M126.65,-216.76C122.29,-208.28 116.85,-197.71 111.96,-188.2"/>
<polygon fill="black" stroke="black" points="114.99,-186.44 107.3,-179.15 108.77,-189.64 114.99,-186.44"/>
</g>
<!-- 7 -->
<g id="node7" class="node">
<title>7</title>
<ellipse fill="none" stroke="black" cx="171" cy="-162" rx="27" ry="18"/>
<text text-anchor="middle" x="171" y="-158.3" font-family="Times,serif" font-size="14.00">+</text>
</g>
<!-- 5&#45;&gt;7 -->
<g id="edge10" class="edge">
<title>5&#45;&gt;7</title>
<path fill="none" stroke="black" d="M143.35,-216.76C147.71,-208.28 153.15,-197.71 158.04,-188.2"/>
<polygon fill="black" stroke="black" points="161.23,-189.64 162.7,-179.15 155.01,-186.44 161.23,-189.64"/>
</g>
<!-- 8 -->
<g id="node8" class="node">
<title>8</title>
<ellipse fill="none" stroke="black" cx="135" cy="-90" rx="27" ry="18"/>
<text text-anchor="middle" x="135" y="-86.3" font-family="Times,serif" font-size="14.00">*</text>
</g>
<!-- 7&#45;&gt;8 -->
<g id="edge6" class="edge">
<title>7&#45;&gt;8</title>
<path fill="none" stroke="black" d="M162.65,-144.76C158.29,-136.28 152.85,-125.71 147.96,-116.2"/>
<polygon fill="black" stroke="black" points="150.99,-114.44 143.3,-107.15 144.77,-117.64 150.99,-114.44"/>
</g>
<!-- 11 -->
<g id="node11" class="node">
<title>11</title>
<ellipse fill="none" stroke="black" cx="207" cy="-90" rx="27" ry="18"/>
<text text-anchor="middle" x="207" y="-86.3" font-family="Times,serif" font-size="14.00">/</text>
</g>
<!-- 7&#45;&gt;11 -->
<g id="edge9" class="edge">
<title>7&#45;&gt;11</title>
<path fill="none" stroke="black" d="M179.35,-144.76C183.71,-136.28 189.15,-125.71 194.04,-116.2"/>
<polygon fill="black" stroke="black" points="197.23,-117.64 198.7,-107.15 191.01,-114.44 197.23,-117.64"/>
</g>
<!-- 9 -->
<g id="node9" class="node">
<title>9</title>
<ellipse fill="none" stroke="black" cx="63" cy="-18" rx="27" ry="18"/>
<text text-anchor="middle" x="63" y="-14.3" font-family="Times,serif" font-size="14.00">5</text>
</g>
<!-- 8&#45;&gt;9 -->
<g id="edge4" class="edge">
<title>8&#45;&gt;9</title>
<path fill="none" stroke="black" d="M120.43,-74.83C110.25,-64.94 96.48,-51.55 84.97,-40.36"/>
<polygon fill="black" stroke="black" points="87.41,-37.85 77.8,-33.38 82.53,-42.87 87.41,-37.85"/>
</g>
<!-- 10 -->
<g id="node10" class="node">
<title>10</title>
<ellipse fill="none" stroke="black" cx="135" cy="-18" rx="27" ry="18"/>
<text text-anchor="middle" x="135" y="-14.3" font-family="Times,serif" font-size="14.00">4</text>
</g>
<!-- 8&#45;&gt;10 -->
<g id="edge5" class="edge">
<title>8&#45;&gt;10</title>
<path fill="none" stroke="black" d="M135,-71.7C135,-63.98 135,-54.71 135,-46.11"/>
<polygon fill="black" stroke="black" points="138.5,-46.1 135,-36.1 131.5,-46.1 138.5,-46.1"/>
</g>
<!-- 12 -->
<g id="node12" class="node">
<title>12</title>
<ellipse fill="none" stroke="black" cx="207" cy="-18" rx="27" ry="18"/>
<text text-anchor="middle" x="207" y="-14.3" font-family="Times,serif" font-size="14.00">4</text>
</g>
<!-- 11&#45;&gt;12 -->
<g id="edge7" class="edge">
<title>11&#45;&gt;12</title>
<path fill="none" stroke="black" d="M207,-71.7C207,-63.98 207,-54.71 207,-46.11"/>
<polygon fill="black" stroke="black" points="210.5,-46.1 207,-36.1 203.5,-46.1 210.5,-46.1"/>
</g>
<!-- 13 -->
<g id="node13" class="node">
<title>13</title>
<ellipse fill="none" stroke="black" cx="279" cy="-18" rx="27" ry="18"/>
<text text-anchor="middle" x="279" y="-14.3" font-family="Times,serif" font-size="14.00">2</text>
</g>
<!-- 11&#45;&gt;13 -->
<g id="edge8" class="edge">
<title>11&#45;&gt;13</title>
<path fill="none" stroke="black" d="M221.57,-74.83C231.75,-64.94 245.52,-51.55 257.03,-40.36"/>
<polygon fill="black" stroke="black" points="259.47,-42.87 264.2,-33.38 254.59,-37.85 259.47,-42.87"/>
</g>
</g>
</svg>
